<?xml version="1.0" encoding="utf-8"?>
<!-- Generator: Adobe Illustrator 27.5.0, SVG Export Plug-In . SVG Version: 6.00 Build 0)  -->
<svg version="1.1" id="レイヤー_1" xmlns="http://www.w3.org/2000/svg" xmlns:xlink="http://www.w3.org/1999/xlink" x="0px"
	 y="0px" viewBox="0 0 1000 1000" enable-background="new 0 0 1000 1000" xml:space="preserve">
<g>
	<path fill="#808080" d="M296.89,969.5c-19.35,0-35.4-14.52-37.34-33.76l-59-585.24h598.89l-59,585.24
		c-1.94,19.25-17.99,33.76-37.34,33.76H296.89z"/>
	<path d="M798.89,351l-58.94,584.68C738.04,954.68,722.2,969,703.11,969H296.89c-19.09,0-34.93-14.32-36.84-33.32L201.11,351H798.89
		 M800,350H200l59.05,585.78c1.96,19.43,18.31,34.22,37.84,34.22h406.22c19.53,0,35.88-14.79,37.84-34.22L800,350L800,350z"/>
</g>
<g>
	<path fill="#808080" d="M160.5,299.5v-11.22c0-48.4,39.38-87.78,87.78-87.78h204.85l8.83-45.98c2-10.44,11.18-18.02,21.81-18.02
		H517c10.37,0,19.26,7.05,21.62,17.14l10.98,46.86h202.12c48.4,0,87.78,39.38,87.78,87.78v11.22H160.5z"/>
	<path d="M517,137c10.13,0,18.82,6.89,21.14,16.76l10.89,46.47l0.18,0.77H550h201.72c48.13,0,87.28,39.15,87.28,87.28V299H161
		v-10.72c0-48.13,39.15-87.28,87.28-87.28h204.43h0.83l0.16-0.81l8.75-45.57c1.96-10.21,10.93-17.62,21.32-17.62H517 M517,136
		h-33.23c-10.89,0-20.25,7.73-22.3,18.43L452.71,200H248.28c-48.76,0-88.28,39.52-88.28,88.28V300h680v-11.72
		c0-48.76-39.52-88.28-88.28-88.28H550l-10.89-46.47C536.7,143.26,527.54,136,517,136L517,136z"/>
</g>
<g>
	<path fill="#FFFFFF" d="M365,858.5L365,858.5c-20.06,0-36.32-16.26-36.32-36.32V537.82c0-20.06,16.26-36.32,36.32-36.32h0
		c20.06,0,36.32,16.26,36.32,36.32v284.35C401.32,842.24,385.06,858.5,365,858.5z"/>
</g>
<g>
	<path fill="#FFFFFF" d="M500,858.5L500,858.5c-20.06,0-36.32-16.26-36.32-36.32V537.82c0-20.06,16.26-36.32,36.32-36.32h0
		c20.06,0,36.32,16.26,36.32,36.32v284.35C536.32,842.24,520.06,858.5,500,858.5z"/>
</g>
<g>
	<path fill="#FFFFFF" d="M635,858.5L635,858.5c-20.06,0-36.32-16.26-36.32-36.32V537.82c0-20.06,16.26-36.32,36.32-36.32h0
		c20.06,0,36.32,16.26,36.32,36.32v284.35C671.32,842.24,655.06,858.5,635,858.5z"/>
</g>
<g>
</g>
<g>
</g>
<g>
</g>
<g>
</g>
<g>
</g>
<g>
</g>
<g>
</g>
<g>
</g>
<g>
</g>
<g>
</g>
<g>
</g>
<g>
</g>
<g>
</g>
<g>
</g>
<g>
</g>
</svg>
